<svg t="1590586068127" class="icon" viewBox="0 0 1024 1024" version="1.1" xmlns="http://www.w3.org/2000/svg" p-id="9158" width="200" height="200"><path d="M222.954 566.318H85.342v59.386h137.612v-59.386z m0-336.35H181.69V74.232c0-7.987 4.71-14.847 9.931-14.847H670.09V0H191.725c-36.86 1.229-66.042 34.403-65.018 74.233v155.734H85.342v59.386h137.612v-59.386z m0 168.226H85.342v59.386h137.612v-59.386zM904.05 474.78h-55.085v474.884c0 7.986-4.71 14.847-9.932 14.847H191.725c-5.324 0-9.932-6.963-9.932-14.847V793.93h41.263v-59.386H85.342v59.386h41.263v155.837c-1.024 39.83 28.055 73.004 65.017 74.233h647.41c36.861-1.229 66.042-34.403 65.018-74.233V474.781z m14.233-290.48l-79.148-85.39c-13.106-14.233-31.229-22.117-50.068-21.81-18.84 0.512-36.656 9.113-49.147 23.857L392.409 507.24c-2.662 3.072-4.608 6.758-5.939 10.75l-68.806 222.699c-3.276 10.648-0.716 22.218 6.656 30.307 7.372 7.986 18.327 10.75 28.157 7.167l206.418-74.13c4.402-1.536 8.395-4.3 11.57-7.986l349.865-408.74c25.188-29.693 24.267-74.54-2.047-103.004zM387.392 702.907l37.27-120.718 74.642 80.479-111.912 40.239z m161.98-70.035L450.67 526.795 641.42 304.2l98.703 106.383L549.372 632.87z m330.514-386.01l-0.204 0.205-102.083 119.285-98.704-106.588L780.261 140.99c2.458-2.97 6.041-4.71 9.83-4.71 3.788-0.205 7.372 1.433 9.931 4.3l79.352 85.803c5.222 5.529 5.427 14.641 0.512 20.478z" p-id="9159"></path></svg>