<?xml version="1.0" standalone="no"?><!DOCTYPE svg PUBLIC "-//W3C//DTD SVG 1.1//EN" "http://www.w3.org/Graphics/SVG/1.1/DTD/svg11.dtd"><svg t="1567413271379" class="icon" viewBox="0 0 1024 1024" version="1.1" xmlns="http://www.w3.org/2000/svg" p-id="4951" xmlns:xlink="http://www.w3.org/1999/xlink" width="200" height="200"><defs><style type="text/css"></style></defs><path d="M654.1 608.9c20.4-24.7 37-52.1 49.5-81.7 17.3-40.9 26.1-84.4 26.1-129.1s-8.8-88.2-26.1-129.1c-16.7-39.5-40.6-75-71.1-105.4-30.5-30.5-65.9-54.4-105.4-71.1C486.2 75 442.8 66.2 398 66.2S309.8 75 268.8 92.3c-39.5 16.7-75 40.6-105.4 71.1-30.5 30.5-54.4 65.9-71.1 105.4-17.3 41-26.1 84.4-26.1 129.2s8.8 88.2 26.1 129.1c16.7 39.5 40.6 75 71.1 105.4 30.5 30.5 65.9 54.4 105.4 71.1 40.9 17.3 84.4 26.1 129.1 26.1s88.2-8.8 129.1-26.1c29.7-12.5 57-29.2 81.7-49.5l296.8 296.8 22.6-22.6 22.6-22.6-296.6-296.8zM665.8 398c0 147.6-120.1 267.8-267.8 267.8-147.6 0-267.8-120.1-267.8-267.8 0-147.6 120.1-267.8 267.8-267.8 147.6 0 267.8 120.1 267.8 267.8z" p-id="4952"></path></svg>